# xmcd CD database file
#
# Track frame offsets:
#	150
#	13725
#	25632
#	36505
#	47612
#	60172
#	82695
#	110107
#	123622
#	150132
#	165775
#	182365
#	196370
#	216090
#	225510
#	238100
#	250457
#	261282
#	282880
#	299745
#
# Disc length: 4159 seconds
#
# Revision: 0
# Processed by: cddbd v1.5.1PL0 Copyright (c) Steve Scherf et al.
# Submitted via: CDex 1.51
#
DISCID=09103d14
DTITLE=Skip James - hard time
DYEAR=2002
DGENRE=Blues
TTITLE0=she's all the world to me
TTITLE1=everybody leaving here
TTITLE2=hard time killin' floor blues
TTITLE3=illinois blues
TTITLE4=drunken spree
TTITLE5=all night long
TTITLE6=my gal
TTITLE7=look at the people
TTITLE8=worried blues
TTITLE9=devil got my woman
TTITLE10=my last boogie
TTITLE11=lazy bones
TTITLE12=my own blues
TTITLE13=omaha blues
TTITLE14=keep your lamp
TTITLE15=somebody loves you
TTITLE16=sporting life blues
TTITLE17=they are waiting for you
TTITLE18=walking the sea
TTITLE19=jack of diamonds
EXTD=YEAR: 2002
EXTT0=
EXTT1=
EXTT2=
EXTT3=
EXTT4=
EXTT5=
EXTT6=
EXTT7=
EXTT8=
EXTT9=
EXTT10=
EXTT11=
EXTT12=
EXTT13=
EXTT14=
EXTT15=
EXTT16=
EXTT17=
EXTT18=
EXTT19=
PLAYORDER=
